<svg width="137" height="39" viewBox="0 0 137 39" fill="none" xmlns="http://www.w3.org/2000/svg">
<path d="M0 1.28564H9.12825L18.1712 19.7999L27.2141 1.28564H36.3424L18.4271 37.2856H17.9153L0 1.28564Z" fill="#002840"/>
<path d="M74.3904 1.28564H83.4333V18.5999C83.4333 21.9428 83.6892 24.3428 84.1158 25.6285C84.5424 26.9142 85.3102 27.9428 86.3337 28.7142C87.3574 29.3999 88.6371 29.8285 90.0874 29.8285C91.5377 29.8285 92.8173 29.4856 93.9264 28.7142C94.9501 28.0285 95.7179 26.9142 96.2298 25.5428C96.571 24.5142 96.8269 22.2856 96.8269 18.8571V1.28564H105.785V16.5428C105.785 22.7999 105.273 27.0856 104.334 29.3999C103.14 32.2285 101.348 34.3714 99.045 35.9142C96.6563 37.4571 93.7557 38.1428 90.0874 38.1428C86.1631 38.1428 83.0068 37.2856 80.5328 35.4856C78.1441 33.6856 76.4378 31.2856 75.4141 28.1142C74.7316 25.9714 74.3904 21.9428 74.3904 16.1999V1.28564Z" fill="#002840"/>
<path d="M108.773 1.28564H136.243L120.119 29.6571H135.304V37.2856H106.299L122.508 8.91422H108.773V1.28564Z" fill="#002840"/>
<mask id="mask0_3312_6" style="mask-type:luminance" maskUnits="userSpaceOnUse" x="33" y="0" width="38" height="23">
<path d="M40.1804 15.4291C41.3747 11.9148 43.5075 9.42912 46.8346 7.80055C48.4555 7.02912 50.2471 6.68626 52.0386 6.68626C54.342 6.68626 56.4747 7.28626 58.4369 8.48626C60.8256 9.9434 62.6171 11.9148 63.5555 14.572C64.1527 16.1148 64.238 16.1148 62.9584 16.1148C62.7877 16.1148 62.7024 16.1148 62.5318 16.1148C56.3894 16.1148 50.1617 16.1148 44.0194 16.1148C43.5928 16.1148 43.081 16.1148 42.6544 16.1148C41.9719 16.1148 41.2894 16.1148 40.6069 16.1148H40.5216C40.1804 16.0291 40.0951 15.9434 40.1804 15.4291ZM48.8821 0.686258C45.4697 1.28626 42.4838 2.65769 39.9245 4.88626C36.9386 7.37197 34.9764 10.6291 33.8674 14.4005C33.1849 16.7148 33.0996 19.0291 33.2702 21.3434C33.3555 22.372 33.5261 22.4577 34.5499 22.4577H52.0386C57.8397 22.4577 63.7262 22.4577 69.5273 22.4577C70.6363 22.4577 70.7216 22.2863 70.8923 21.172C70.9776 19.972 70.9776 18.6863 70.8923 17.4863C70.6363 14.4005 69.6126 11.572 67.9064 8.91483C66.2002 6.25769 63.9821 4.28626 61.2521 2.7434C59.1194 1.5434 56.7307 0.771973 54.2567 0.51483C53.5742 0.429116 52.8917 0.429115 52.2092 0.429115C51.1002 0.343401 49.9911 0.429116 48.8821 0.686258Z" fill="white"/>
</mask>
<g mask="url(#mask0_3312_6)">
<path d="M70.8919 0.343262H33.1846V22.3718H70.8919V0.343262Z" fill="url(#paint0_linear_3312_6)"/>
</g>
<mask id="mask1_3312_6" style="mask-type:luminance" maskUnits="userSpaceOnUse" x="38" y="27" width="28" height="12">
<path d="M41.9743 28.1139C40.9506 29.1425 39.8416 30.2568 38.7325 31.2853C38.2206 31.7996 38.306 32.0568 38.7325 32.571C39.9269 33.8568 41.3771 34.971 42.9127 35.7425C45.728 37.2853 48.7139 38.1425 51.9557 38.0568C54.4297 38.0568 56.8184 37.6282 59.0365 36.6853C61.4252 35.6568 63.5579 34.2853 65.3495 32.3996C65.776 31.971 65.776 31.7139 65.3495 31.2853C64.2404 30.2568 63.2167 29.1425 62.1077 28.1139C61.4252 27.4282 61.4252 27.4282 60.6574 28.1139C59.9749 28.7996 59.2924 29.3996 58.5246 29.8282C55.624 31.6282 52.4675 32.0568 49.2257 31.371C46.9223 30.8568 44.8749 29.6568 43.1687 28.0282C42.8274 27.6853 42.7421 27.5996 42.5715 27.5996C42.4862 27.6853 42.3156 27.8568 41.9743 28.1139Z" fill="white"/>
</mask>
<g mask="url(#mask1_3312_6)">
<path d="M65.9473 27.5142H38.3066V38.1427H65.9473V27.5142Z" fill="url(#paint1_linear_3312_6)"/>
</g>
<defs>
<linearGradient id="paint0_linear_3312_6" x1="33.2771" y1="11.4087" x2="70.8974" y2="11.4087" gradientUnits="userSpaceOnUse">
<stop stop-color="#00ABC7"/>
<stop offset="0.1151" stop-color="#00ADBE"/>
<stop offset="0.338" stop-color="#26B2A6"/>
<stop offset="0.6462" stop-color="#6ABC7E"/>
<stop offset="1" stop-color="#9DCB3B"/>
</linearGradient>
<linearGradient id="paint1_linear_3312_6" x1="38.4389" y1="32.8703" x2="65.7789" y2="32.8703" gradientUnits="userSpaceOnUse">
<stop stop-color="#00ABC7"/>
<stop offset="0.1151" stop-color="#00ADBE"/>
<stop offset="0.338" stop-color="#26B2A6"/>
<stop offset="0.6462" stop-color="#6ABC7E"/>
<stop offset="1" stop-color="#9DCB3B"/>
</linearGradient>
</defs>
</svg>
